<svg xmlns="http://www.w3.org/2000/svg" width="512" height="512" viewBox="0 0 512 512" version="1.1"><path d="M 231 225 L 231 230 235.500 230 L 240 230 240 225 L 240 220 235.500 220 L 231 220 231 225 M 261 225 L 261 230 265.500 230 L 270 230 270 225 L 270 220 265.500 220 L 261 220 261 225 M 220 431 L 220 441 225 441 L 230 441 230 461 L 230 481 235.500 481 L 241 481 241 476 C 241 471.667, 241.267 471, 243 471 C 244.914 471, 245 470.333, 245 455.500 L 245 440 240.500 440 L 236 440 236 435.500 C 236 431.367, 235.796 431, 233.500 431 C 231.167 431, 231 430.667, 231 426 L 231 421 225.500 421 L 220 421 220 431 M 271 426 C 271 430.889, 270.933 431, 268 431 C 265.111 431, 265 431.167, 265 435.500 L 265 440 260.500 440 L 256 440 256 455.500 C 256 470.333, 256.086 471, 258 471 C 259.733 471, 260 471.667, 260 476 L 260 481 265.500 481 L 271 481 271 461 L 271 441 276 441 L 281 441 281 431 L 281 421 276 421 L 271 421 271 426" stroke="none" fill="#6a2037" fill-rule="evenodd"/><path d="M 220 411 L 220 421 225.500 421 L 231 421 231 426 C 231 430.667, 231.167 431, 233.500 431 L 236 431 236 420.500 L 236 410 233 410 C 230.111 410, 230 409.833, 230 405.500 L 230 401 225 401 L 220 401 220 411 M 271 405.500 C 271 409.833, 270.889 410, 268 410 L 265 410 265 420.500 L 265 431 268 431 C 270.933 431, 271 430.889, 271 426 L 271 421 276 421 L 281 421 281 411 L 281 401 276 401 L 271 401 271 405.500" stroke="none" fill="#8f2936" fill-rule="evenodd"/><path d="M 241 326 L 241 331 236 331 L 231 331 231 341 L 231 351 235.500 351 L 240 351 240 355.500 C 240 359.633, 240.204 360, 242.500 360 L 245 360 245 390.500 L 245 421 250.500 421 L 256 421 256 390.500 L 256 360 258.500 360 C 260.796 360, 261 359.633, 261 355.500 L 261 351 265.500 351 L 270 351 270 341 L 270 331 265 331 L 260 331 260 326 L 260 321 250.500 321 L 241 321 241 326 M 190 341 L 190 351 195.500 351 L 201 351 201 341 L 201 331 195.500 331 L 190 331 190 341 M 300 341 L 300 351 305.500 351 L 311 351 311 341 L 311 331 305.500 331 L 300 331 300 341 M 160 346 L 160 351 165.500 351 L 171 351 171 346 L 171 341 165.500 341 L 160 341 160 346 M 330 346 L 330 351 335.500 351 L 341 351 341 346 L 341 341 335.500 341 L 330 341 330 346" stroke="none" fill="#faf8ff" fill-rule="evenodd"/><path d="M 241 316 L 241 321 236 321 L 231 321 231 326 L 231 331 225.500 331 L 220 331 220 351 L 220 371 225 371 L 230 371 230 376 C 230 380.889, 230.067 381, 233 381 L 236 381 236 395.500 L 236 410 240.500 410 L 245 410 245 385 L 245 360 242.500 360 C 240.204 360, 240 359.633, 240 355.500 L 240 351 235.500 351 L 231 351 231 341 L 231 331 236 331 L 241 331 241 326 L 241 321 250.500 321 L 260 321 260 326 L 260 331 265 331 L 270 331 270 341 L 270 351 265.500 351 L 261 351 261 355.500 C 261 359.633, 260.796 360, 258.500 360 L 256 360 256 385 L 256 410 260.500 410 L 265 410 265 395.500 L 265 381 268 381 C 270.933 381, 271 380.889, 271 376 L 271 371 276 371 L 281 371 281 351 L 281 331 275.500 331 L 270 331 270 326 L 270 321 265 321 L 260 321 260 316 L 260 311 250.500 311 L 241 311 241 316 M 160 336 L 160 341 165.500 341 L 171 341 171 336 L 171 331 165.500 331 L 160 331 160 336 M 330 336 L 330 341 335.500 341 L 341 341 341 336 L 341 331 335.500 331 L 330 331 330 336 M 160 366 L 160 381 165.500 381 L 171 381 171 366 L 171 351 165.500 351 L 160 351 160 366 M 190 361 L 190 371 195.500 371 L 201 371 201 361 L 201 351 195.500 351 L 190 351 190 361 M 300 361 L 300 371 305.500 371 L 311 371 311 361 L 311 351 305.500 351 L 300 351 300 361 M 330 366 L 330 381 335.500 381 L 341 381 341 366 L 341 351 335.500 351 L 330 351 330 366 M 245 435.500 L 245 450 250.500 450 L 256 450 256 435.500 L 256 421 250.500 421 L 245 421 245 435.500" stroke="none" fill="#ffcd49" fill-rule="evenodd"/><path d="M 230 315.500 L 230 320 220 320 L 210 320 210 325.500 L 210 331 220.500 331 L 231 331 231 326 L 231 321 236 321 L 241 321 241 316 L 241 311 235.500 311 L 230 311 230 315.500 M 260 316 L 260 321 265 321 L 270 321 270 326 L 270 331 280.500 331 L 291 331 291 325.500 L 291 320 281 320 L 271 320 271 315.500 L 271 311 265.500 311 L 260 311 260 316 M 160 325.500 L 160 331 165.500 331 L 171 331 171 325.500 L 171 320 165.500 320 L 160 320 160 325.500 M 190 325.500 L 190 331 195.500 331 L 201 331 201 325.500 L 201 320 195.500 320 L 190 320 190 325.500 M 300 325.500 L 300 331 305.500 331 L 311 331 311 325.500 L 311 320 305.500 320 L 300 320 300 325.500 M 330 325.500 L 330 331 335.500 331 L 341 331 341 325.500 L 341 320 335.500 320 L 330 320 330 325.500 M 220 386 L 220 401 225 401 L 230 401 230 405.500 C 230 409.833, 230.111 410, 233 410 L 236 410 236 425 L 236 440 240.500 440 L 245 440 245 425 L 245 410 240.500 410 L 236 410 236 395.500 L 236 381 233 381 C 230.067 381, 230 380.889, 230 376 L 230 371 225 371 L 220 371 220 386 M 271 376 C 271 380.889, 270.933 381, 268 381 L 265 381 265 395.500 L 265 410 260.500 410 L 256 410 256 425 L 256 440 260.500 440 L 265 440 265 425 L 265 410 268 410 C 270.889 410, 271 409.833, 271 405.500 L 271 401 276 401 L 281 401 281 386 L 281 371 276 371 L 271 371 271 376 M 245 470.500 L 245 491 250.500 491 L 256 491 256 470.500 L 256 450 250.500 450 L 245 450 245 470.500" stroke="none" fill="#e0522c" fill-rule="evenodd"/><path d="M 160 306 L 160 311 165.500 311 L 171 311 171 306 L 171 301 165.500 301 L 160 301 160 306 M 190 306 L 190 311 195.500 311 L 201 311 201 306 L 201 301 195.500 301 L 190 301 190 306 M 231 306 L 231 311 250.500 311 L 270 311 270 306 L 270 301 250.500 301 L 231 301 231 306 M 300 306 L 300 311 305.500 311 L 311 311 311 306 L 311 301 305.500 301 L 300 301 300 306 M 330 306 L 330 311 335.500 311 L 341 311 341 306 L 341 301 335.500 301 L 330 301 330 306" stroke="none" fill="#000012" fill-rule="evenodd"/><path d="M 231 105.500 L 231 110 235.500 110 L 240 110 240 105.500 L 240 101 235.500 101 L 231 101 231 105.500 M 261 105.500 L 261 110 265.500 110 L 270 110 270 105.500 L 270 101 265.500 101 L 261 101 261 105.500 M 231 215 L 231 220 225.500 220 L 220 220 220 230 L 220 240 225.500 240 L 231 240 231 230 L 231 220 235.500 220 L 240 220 240 225 L 240 230 250.500 230 L 261 230 261 225 L 261 220 265.500 220 L 270 220 270 230 L 270 240 275.500 240 L 281 240 281 230 L 281 220 275.500 220 L 270 220 270 215 L 270 210 265.500 210 L 261 210 261 215 L 261 220 250.500 220 L 240 220 240 215 L 240 210 235.500 210 L 231 210 231 215 M 241 265 L 241 290 236 290 L 231 290 231 295.500 L 231 301 225.500 301 L 220 301 220 306 L 220 311 225.500 311 L 231 311 231 306 L 231 301 236 301 L 241 301 241 295.500 C 241 290.300, 241.136 290, 243.500 290 L 246 290 246 265 L 246 240 243.500 240 L 241 240 241 265 M 255 265 L 255 290 257.500 290 C 259.864 290, 260 290.300, 260 295.500 L 260 301 265 301 L 270 301 270 306 L 270 311 275.500 311 L 281 311 281 306 L 281 301 275.500 301 L 270 301 270 295.500 L 270 290 265 290 L 260 290 260 265 L 260 240 257.500 240 L 255 240 255 265 M 160 295.500 L 160 301 155 301 L 150 301 150 306 L 150 311 155 311 L 160 311 160 306 L 160 301 165.500 301 L 171 301 171 306 L 171 311 180.500 311 L 190 311 190 306 L 190 301 195.500 301 L 201 301 201 306 L 201 311 205.500 311 L 210 311 210 306 L 210 301 205.500 301 L 201 301 201 295.500 L 201 290 195.500 290 L 190 290 190 295.500 L 190 301 180.500 301 L 171 301 171 295.500 L 171 290 165.500 290 L 160 290 160 295.500 M 300 295.500 L 300 301 295.500 301 L 291 301 291 306 L 291 311 295.500 311 L 300 311 300 306 L 300 301 305.500 301 L 311 301 311 306 L 311 311 320.500 311 L 330 311 330 306 L 330 301 335.500 301 L 341 301 341 305.500 L 341 310 345.500 310 L 350 310 350 305.500 L 350 301 345.500 301 L 341 301 341 295.500 L 341 290 335.500 290 L 330 290 330 295.500 L 330 301 320.500 301 L 311 301 311 295.500 L 311 290 305.500 290 L 300 290 300 295.500" stroke="none" fill="#babcae" fill-rule="evenodd"/><path d="M 240 105.500 L 240 110 235.500 110 L 231 110 231 160 L 231 210 250.500 210 L 270 210 270 160 L 270 110 265.500 110 L 261 110 261 105.500 L 261 101 250.500 101 L 240 101 240 105.500 M 240 155 L 240 200 250.500 200 L 261 200 261 155 L 261 110 250.500 110 L 240 110 240 155" stroke="none" fill="#030c1d" fill-rule="evenodd"/><path d="M 240 85 L 240 90 235 90 L 230 90 230 95 L 230 100 225 100 L 220 100 220 105 L 220 110 215 110 L 210 110 210 185 L 210 260 205 260 L 200 260 200 265 L 200 270 190 270 L 180 270 180 275 L 180 280 170 280 L 160 280 160 285 L 160 290 155 290 L 150 290 150 295.500 L 150 301 155 301 L 160 301 160 295.500 L 160 290 165.500 290 L 171 290 171 295.500 L 171 301 180.500 301 L 190 301 190 295.500 L 190 290 185 290 L 180 290 180 285 L 180 280 190 280 L 200 280 200 275 L 200 270 205 270 L 210 270 210 280 L 210 290 205.500 290 L 201 290 201 295.500 L 201 301 205.500 301 L 210 301 210 306 L 210 311 215 311 L 220 311 220 300.500 L 220 290 230.500 290 L 241 290 241 295.500 L 241 301 250.500 301 L 260 301 260 295.500 L 260 290 270.500 290 L 281 290 281 300.500 L 281 311 286 311 L 291 311 291 306 L 291 301 295.500 301 L 300 301 300 295.500 L 300 290 295.500 290 L 291 290 291 280 L 291 270 296 270 L 301 270 301 275 L 301 280 311 280 L 321 280 321 285 L 321 290 316 290 L 311 290 311 295.500 L 311 301 320.500 301 L 330 301 330 295.500 L 330 290 335.500 290 L 341 290 341 295.500 L 341 301 346 301 L 351 301 351 295.500 L 351 290 346 290 L 341 290 341 285 L 341 280 331 280 L 321 280 321 275 L 321 270 311 270 L 301 270 301 265 L 301 260 296 260 L 291 260 291 185 L 291 110 286 110 L 281 110 281 175 L 281 240 270.500 240 L 260 240 260 245.500 L 260 251 270.500 251 L 281 251 281 255.500 L 281 260 270.500 260 L 260 260 260 265 L 260 270 270.500 270 L 281 270 281 275 L 281 280 270.500 280 L 260 280 260 285 C 260 289.667, 259.833 290, 257.500 290 L 255 290 255 265 L 255 240 250.500 240 L 246 240 246 265 L 246 290 243.500 290 C 241.167 290, 241 289.667, 241 285 L 241 280 230.500 280 L 220 280 220 275 L 220 270 230.500 270 L 241 270 241 265 L 241 260 230.500 260 L 220 260 220 255.500 L 220 251 230.500 251 L 241 251 241 245.500 L 241 240 230.500 240 L 220 240 220 175 L 220 110 225.500 110 L 231 110 231 105.500 L 231 101 250.500 101 L 270 101 270 105.500 L 270 110 275 110 L 280 110 280 105.500 L 280 101 275.500 101 L 271 101 271 95.500 L 271 90 266 90 L 261 90 261 85 L 261 80 250.500 80 L 240 80 240 85 M 240 215 L 240 220 250.500 220 L 261 220 261 215 L 261 210 250.500 210 L 240 210 240 215" stroke="none" fill="#fffff6" fill-rule="evenodd"/><path d="M 240 140 L 240 170 245 170 L 250 170 250 165 L 250 160 255.500 160 L 261 160 261 150.500 L 261 141 255.500 141 L 250 141 250 135.500 L 250 130 255.500 130 L 261 130 261 120 L 261 110 250.500 110 L 240 110 240 140" stroke="none" fill="#fcffff" fill-rule="evenodd"/><path d="M 250 135.500 L 250 141 255.500 141 L 261 141 261 135.500 L 261 130 255.500 130 L 250 130 250 135.500 M 250 165 L 250 170 245 170 L 240 170 240 180.500 L 240 191 245 191 L 250 191 250 186 L 250 181 255.500 181 L 261 181 261 170.500 L 261 160 255.500 160 L 250 160 250 165" stroke="none" fill="#06b5d2" fill-rule="evenodd"/><path d="M 220 165 L 220 220 225.500 220 L 231 220 231 165 L 231 110 225.500 110 L 220 110 220 165 M 270 165 L 270 220 275.500 220 L 281 220 281 165 L 281 110 275.500 110 L 270 110 270 165 M 250 186 L 250 191 245 191 L 240 191 240 195.500 L 240 200 250.500 200 L 261 200 261 190.500 L 261 181 255.500 181 L 250 181 250 186 M 231 235 L 231 240 250.500 240 L 270 240 270 235 L 270 230 250.500 230 L 231 230 231 235 M 220 255.500 L 220 260 230.500 260 L 241 260 241 255.500 L 241 251 230.500 251 L 220 251 220 255.500 M 260 255.500 L 260 260 270.500 260 L 281 260 281 255.500 L 281 251 270.500 251 L 260 251 260 255.500 M 200 275 L 200 280 190 280 L 180 280 180 285 L 180 290 195 290 L 210 290 210 280 L 210 270 205 270 L 200 270 200 275 M 220 275 L 220 280 230.500 280 L 241 280 241 275 L 241 270 230.500 270 L 220 270 220 275 M 260 275 L 260 280 270.500 280 L 281 280 281 275 L 281 270 270.500 270 L 260 270 260 275 M 291 280 L 291 290 306 290 L 321 290 321 285 L 321 280 311 280 L 301 280 301 275 L 301 270 296 270 L 291 270 291 280 M 220 295.500 L 220 301 225.500 301 L 231 301 231 295.500 L 231 290 225.500 290 L 220 290 220 295.500 M 270 295.500 L 270 301 275.500 301 L 281 301 281 295.500 L 281 290 275.500 290 L 270 290 270 295.500" stroke="none" fill="#005c7c" fill-rule="evenodd"/></svg>