<?xml version="1.0" standalone="no"?>
<!DOCTYPE svg PUBLIC "-//W3C//DTD SVG 20010904//EN"
 "http://www.w3.org/TR/2001/REC-SVG-20010904/DTD/svg10.dtd">
<svg version="1.0" xmlns="http://www.w3.org/2000/svg"
 width="512.000000pt" height="512.000000pt" viewBox="0 0 512.000000 512.000000"
 preserveAspectRatio="xMidYMid meet">

<g transform="translate(0.000000,512.000000) scale(0.100000,-0.100000)"
fill="#000000" stroke="none">
<path d="M2198 4448 l-3 -83 -66 -5 c-86 -7 -99 -18 -99 -88 0 -40 -5 -58 -17
-68 -14 -10 -78 -13 -278 -14 -219 0 -264 -2 -283 -16 -21 -15 -22 -21 -22
-170 l0 -154 95 0 95 0 0 85 c0 47 3 84 8 84 4 -1 139 -1 300 0 l292 1 0 165
0 165 295 0 295 0 0 -80 0 -80 328 -2 327 -3 3 -82 3 -82 137 -3 137 -3 3 -93
c2 -74 6 -93 16 -89 8 3 23 -1 35 -9 18 -13 21 -25 21 -85 l0 -69 -115 0 -115
0 0 -95 0 -95 115 0 115 0 0 -250 0 -250 -73 0 c-43 0 -78 -5 -85 -12 -7 -7
-12 -43 -12 -90 l0 -78 35 0 35 0 0 -85 0 -85 -102 -1 c-57 -1 -113 -3 -125
-4 l-23 -2 0 178 0 179 -160 0 -160 0 0 148 c-1 180 -2 182 -92 182 -52 0 -68
-4 -83 -20 -15 -17 -31 -20 -92 -20 l-73 0 0 -150 0 -150 165 0 165 0 1 -47
c4 -136 14 -123 -101 -123 l-100 0 0 -226 c0 -276 6 -263 -137 -264 l-93 0 0
-265 0 -265 -235 0 c-150 0 -235 4 -236 10 0 6 0 43 -1 83 l0 72 89 5 c71 4
94 9 116 26 l27 22 0 155 0 156 -92 3 c-51 2 -128 2 -170 0 l-78 -3 0 -70 c0
-90 -17 -108 -102 -109 l-58 0 0 -175 0 -175 -172 2 -173 3 -3 83 -3 82 -93 0
-93 0 -8 -171 c-4 -106 -3 -175 2 -180 6 -6 116 -9 277 -7 l266 3 0 -226 c0
-206 -2 -227 -18 -242 -16 -14 -43 -17 -164 -17 -163 0 -178 -6 -178 -71 0
-27 -7 -38 -33 -56 -43 -29 -89 -25 -127 12 l-30 29 0 283 0 283 -95 0 -95 0
0 90 0 90 -85 0 -85 0 0 73 c0 106 -10 117 -111 117 l-79 0 0 420 0 419 92 3
93 3 3 183 2 182 80 0 80 0 0 160 0 160 100 0 100 0 -2 183 -3 182 -60 3 c-33
2 -75 0 -92 -3 l-33 -6 0 -99 0 -100 -44 0 c-26 0 -48 -6 -56 -14 -6 -8 -27
-20 -46 -26 l-34 -12 0 -144 0 -144 -90 0 -90 0 0 -165 0 -165 -85 0 -85 0 0
-335 0 -335 -80 0 -80 0 0 -95 0 -95 80 0 80 0 0 -413 c0 -308 3 -416 12 -425
8 -8 62 -12 175 -12 l163 0 0 -53 c0 -50 2 -55 44 -90 25 -20 55 -37 69 -37
13 0 35 -13 50 -28 25 -26 27 -34 27 -123 l0 -94 33 -20 c18 -12 57 -22 92
-25 l60 -5 5 -63 c4 -56 8 -65 35 -82 46 -30 202 -29 267 2 l47 23 1 69 c0 53
4 72 18 82 24 19 41 17 79 -9 32 -21 33 -24 33 -90 0 -60 3 -70 26 -90 22 -19
40 -23 142 -27 l117 -5 3 -83 3 -82 332 0 c260 1 336 4 350 14 13 10 17 28 17
85 l0 71 74 0 c43 0 78 5 82 11 3 6 26 19 50 29 l44 19 0 61 0 60 300 0 300 0
0 74 0 74 68 4 c51 2 75 9 96 26 16 12 37 22 47 22 18 0 19 10 19 140 l0 140
155 0 155 0 0 84 c0 90 5 101 57 115 26 7 28 11 33 72 l5 64 45 0 45 0 3 247
c3 276 -2 260 81 288 l46 15 3 493 2 492 -115 0 -115 0 0 260 0 260 -145 0
-145 0 -2 163 -3 162 -132 3 -133 3 0 99 0 100 -140 0 -140 0 0 90 0 91 -245
-3 -245 -3 0 83 0 82 -425 0 -424 0 -3 -82z m1884 -915 c3 -110 1 -130 -15
-150 -21 -26 -84 -32 -105 -11 -13 13 -18 242 -6 272 5 12 21 16 64 16 l59 0
3 -127z m278 -818 l0 -85 -90 0 -90 0 0 85 0 85 90 0 90 0 0 -85z m-1059 -432
c1 -10 2 -45 3 -78 l1 -60 82 -3 82 -3 3 63 3 63 78 3 c109 4 110 3 105 -131
-2 -81 -7 -110 -18 -117 -8 -5 -42 -10 -76 -10 -48 0 -65 -4 -79 -20 -17 -19
-29 -20 -174 -18 l-156 3 -3 163 -2 162 75 0 c64 0 75 -2 76 -17z m785 -306
c3 -13 4 -41 2 -63 l-3 -39 -77 -3 -78 -3 0 66 0 65 75 0 c70 0 75 -1 81 -23z
m-3036 -382 l0 -175 -90 0 -90 0 0 175 0 175 90 0 90 0 0 -175z m1148 91 c2
-57 -1 -82 -10 -87 -7 -5 -57 -9 -110 -9 l-98 0 0 90 0 91 108 -3 107 -3 3
-79z m962 -6 l0 -90 -90 0 -90 0 0 90 0 90 90 0 90 0 0 -90z m-397 -89 l48 -1
-3 -82 -3 -83 -97 -3 -98 -3 0 90 0 89 53 -3 c28 -1 74 -3 100 -4z m-163 -232
c0 -81 -10 -88 -122 -89 l-88 0 0 75 0 75 105 0 105 0 0 -61z m558 -131 l3
-118 -86 0 -85 0 0 113 c0 63 3 117 7 121 4 4 41 5 83 4 l75 -3 3 -117z m-568
-353 l0 -75 -60 0 c-67 0 -61 -10 -65 103 l-2 47 64 0 63 0 0 -75z"/>
<path d="M3121 3935 l2 -85 108 0 109 0 0 85 0 85 -111 0 -110 0 2 -85z"/>
<path d="M1977 3844 c-4 -4 -7 -47 -7 -96 l0 -88 -120 0 -120 0 0 -90 0 -90
125 0 125 0 0 95 0 95 48 0 c73 1 83 14 80 101 l-3 74 -60 3 c-34 2 -64 0 -68
-4z"/>
<path d="M2457 3843 c-4 -3 -7 -84 -7 -179 0 -129 3 -173 13 -176 6 -2 83 -3
170 -3 l159 0 -2 174 c0 96 -3 178 -6 183 -6 9 -318 11 -327 1z"/>
<path d="M3277 3463 c-4 -3 -7 -55 -7 -115 l0 -108 105 0 105 0 0 33 c0 17 -3
69 -7 115 l-6 82 -92 0 c-50 0 -95 -3 -98 -7z"/>
<path d="M1426 3432 c-2 -4 -4 -51 -3 -103 l2 -94 93 -3 92 -3 0 106 0 105
-89 0 c-50 0 -92 -4 -95 -8z"/>
<path d="M2120 3241 c0 -62 -2 -70 -25 -85 -14 -9 -45 -16 -75 -16 l-50 0 0
-170 0 -170 230 0 230 0 0 -90 0 -90 90 0 90 0 -2 178 -3 177 -82 3 -83 3 0
164 0 165 -160 0 -160 0 0 -69z"/>
<path d="M1432 2928 l3 -113 93 -3 92 -3 0 116 0 115 -95 0 -96 0 3 -112z"/>
<path d="M1054 2791 c-2 -2 -4 -111 -4 -242 l0 -238 88 -3 87 -3 3 -82 3 -83
269 0 269 0 3 148 3 147 103 3 102 3 0 89 0 90 -105 0 -105 0 0 -90 0 -90 -80
0 -80 0 0 -48 c0 -80 -7 -83 -211 -80 l-174 3 -3 238 -2 237 -50 1 c-28 1 -64
2 -81 3 -17 0 -33 -1 -35 -3z"/>
</g>
</svg>
